<svg width="600" height="564" viewBox="0 0 600 564" fill="none" xmlns="http://www.w3.org/2000/svg">
<path d="M407.899 329.107C429.312 353.793 472.41 310.285 499.279 291.6C526.148 272.915 550.561 242.091 542.787 210.312C533.24 171.305 480.321 151.529 478.684 111.431C478.002 93.2908 488.504 76.9241 494.096 59.7392C499.688 42.5542 497.915 19.2317 481.412 11.8668C476.502 9.68454 470.91 9.27536 465.454 8.86619C440.086 7.22953 414.718 5.45646 389.35 3.81979C355.934 1.63758 321.428 -0.408288 289.922 10.7756C245.187 26.7331 213.817 66.5586 174.265 93.1544C168.809 96.8369 162.945 100.383 156.398 100.656C136.758 101.474 128.165 75.4239 110.98 65.7403C94.2047 56.1931 71.1548 65.4675 61.3348 82.1069C51.5148 98.7464 52.4697 119.887 58.7435 138.163C65.0174 156.439 75.9286 172.669 85.4759 189.445C95.0231 206.221 103.343 224.497 103.752 243.728C104.161 264.595 95.0228 284.508 85.2028 302.92C75.3828 321.333 354.707 267.732 407.899 329.107Z" fill="#171D07"/>
<path d="M552.879 510.233C545.787 491.82 559.699 469.589 550.97 451.995C543.741 437.401 524.92 433.582 512.372 423.217C503.916 416.125 498.46 406.305 492.05 397.303C485.64 388.301 477.184 379.845 466.273 377.936L466.409 377.117C458.225 363.479 446.36 350.794 440.359 339.747C435.721 331.427 473.092 312.469 473.092 312.469C445.405 285.055 381.711 234.864 345.023 221.634C343.659 202.54 341.886 155.622 341.886 155.622C356.48 151.94 385.939 144.166 385.939 144.166C368.754 122.889 350.069 98.339 330.702 74.1982C324.292 66.1513 315.699 59.0591 305.879 56.3313L274.646 49.921L261.144 107.204C253.506 103.658 243.55 105.158 237.549 111.16C230.457 118.115 229.638 130.527 235.639 138.437C239.458 143.484 245.596 146.211 251.87 146.484L251.733 147.03C241.231 171.853 231.684 192.447 221.046 213.997L220.909 213.451C186.13 228.863 153.533 242.229 121.755 263.506C90.1124 284.646 61.6073 311.924 44.4223 346.021C44.4223 346.021 66.108 339.474 86.2935 347.657C84.7933 349.294 83.5657 351.067 82.4746 352.977C77.701 361.296 76.8829 371.253 74.1551 380.391C64.1987 413.397 29.8288 434.537 19.5996 467.543C19.5996 467.543 35.6933 503.55 147.668 521.553C151.351 522.099 151.351 515.143 152.169 511.733C152.851 508.323 152.306 504.641 149.714 502.05C148.623 500.958 147.259 500.276 145.623 499.731C148.214 497.276 150.669 494.685 152.579 491.82C157.079 485.683 159.398 478.318 157.079 471.635C155.579 467.407 152.442 463.861 149.714 460.178C134.575 439.583 163.762 433.582 178.492 421.171C182.584 417.625 186.13 413.124 188.585 408.487C195.132 416.397 203.451 422.944 212.726 427.445C220.773 433.719 229.229 436.856 236.048 438.083C237.139 438.492 238.367 438.902 239.595 439.174L239.049 438.492C239.458 438.492 240.004 438.629 240.413 438.629L249.142 387.483C249.142 387.483 297.832 389.529 301.378 337.428C301.924 328.972 301.106 322.016 299.333 316.015C314.472 314.106 327.701 314.651 339.567 315.879C342.568 318.198 345.705 321.335 348.296 325.29C348.433 326.381 348.978 327.472 349.796 328.427C350.069 328.699 350.206 328.836 350.478 329.109C354.979 338.11 357.161 350.794 352.933 368.798C349.251 384.619 342.568 396.348 335.067 405.214C334.794 405.077 334.658 404.804 334.385 404.668L334.657 405.759C317.882 425.263 297.423 429.763 297.423 429.763L289.785 484.182L410.626 456.905L394.668 393.757C398.76 393.211 402.852 392.12 406.943 390.893C406.534 393.484 406.534 396.212 406.807 398.94C407.625 405.214 410.353 411.215 414.581 415.852H415.672C416.354 448.449 420.037 481.046 426.856 512.824C429.584 525.645 433.403 539.42 444.041 547.058C444.041 547.058 464.227 507.914 510.599 527.009C556.971 546.103 579.339 527.009 579.339 527.009C567.882 527.963 556.835 520.735 552.879 510.233ZM380.211 337.428L376.938 324.471C377.484 324.335 378.166 324.062 378.711 323.926C385.121 322.426 392.895 323.38 396.578 328.836C396.714 329.109 396.851 329.381 396.987 329.654C391.122 331.7 385.53 334.291 380.211 337.428ZM389.486 374.253C397.123 371.116 405.17 368.525 412.944 366.343C406.534 368.661 397.669 373.026 390.304 377.663L389.486 374.253Z" fill="#111217"/>
<path d="M264.555 285.324L268.919 241.816C268.919 241.816 234.822 247.408 209.454 273.458C211.227 273.867 213.136 274.413 214.909 274.958C219.956 276.458 225.548 277.959 229.912 281.232C233.595 284.096 236.05 288.87 234.822 293.643C233.458 298.417 228.548 300.463 223.911 300.19C218.456 299.917 213.273 297.326 208.226 295.416C203.998 293.78 199.634 292.416 194.996 292.825C194.042 294.598 193.087 296.235 192.269 298.144C193.769 298.826 195.269 299.508 196.77 300.19C203.998 303.873 210.818 308.51 216.955 314.102C221.865 318.603 231.958 327.331 224.593 334.014C222.956 335.378 221.183 336.197 219.274 336.469C221.729 339.334 223.911 342.88 223.093 346.835C222.274 350.927 218.319 353.245 214.364 353.109C209.727 352.972 205.362 350.108 201.27 348.062C198.952 346.971 196.633 345.88 194.314 344.925C194.724 345.198 195.269 345.471 195.678 345.88C198.133 347.517 200.452 349.29 202.634 351.336C204.135 352.836 205.771 354.473 206.317 356.519C208.226 362.929 199.088 363.747 195.133 363.884C191.041 364.02 187.086 363.611 183.131 362.792C183.54 367.43 181.903 372.885 184.767 376.022C187.086 378.614 191.451 380.25 192.542 384.069C193.769 388.433 190.359 396.753 191.996 400.436C204.68 429.214 227.321 438.625 240.823 439.306L249.552 388.161C249.552 388.161 298.243 390.207 301.789 338.106C304.926 290.779 264.555 285.324 264.555 285.324Z" fill="#94C020"/>
<path d="M178.766 362.792C178.766 362.383 178.766 361.974 178.629 361.428H178.493C178.63 361.838 178.629 362.247 178.766 362.792Z" fill="#DCDCDC"/>
<path d="M191.723 269.911C205.498 254.362 223.501 242.769 243.414 236.632C243.823 236.496 244.096 236.359 244.232 236.086C250.779 236.905 257.325 238.405 263.599 240.451C242.595 247.543 223.092 258.454 206.043 272.502C207.68 272.911 209.453 273.321 211.09 273.73C228.275 259.954 248.051 249.453 269.191 243.042C269.737 242.906 270.01 242.633 270.283 242.36C271.783 241.815 272.192 239.087 270.146 238.405C261.554 235.404 252.825 233.086 243.687 232.131C243.005 231.995 242.459 232.404 242.05 232.949C221.046 239.496 202.088 251.907 187.767 268.547C187.495 268.82 187.358 269.229 187.222 269.502C188.586 269.502 190.222 269.638 191.723 269.911Z" fill="#DCDCDC"/>
<path d="M247.506 395.115C241.914 392.796 238.231 387.613 234.958 382.84C233.185 380.385 231.548 377.793 229.639 375.475C227.866 373.156 225.684 370.565 223.229 369.064C220.501 367.428 216.682 367.155 214.772 370.292C212.999 373.156 214.227 376.975 214.772 379.976C216.273 387.068 218.455 394.024 221.456 400.707C224.865 408.481 229.366 415.573 234.685 422.256C236.322 424.302 239.186 421.438 237.55 419.392C229.093 408.89 223.092 396.615 219.819 383.658C219.001 380.658 218.046 377.248 218.046 374.111C217.91 370.156 221.592 372.611 223.092 374.111C227.048 377.93 229.912 382.84 233.185 387.204C236.731 392.114 240.823 396.615 246.551 398.934C247.642 399.343 248.733 398.524 249.006 397.57C249.279 396.479 248.46 395.524 247.506 395.115Z" fill="#DCDCDC"/>
<path d="M270.964 321.603C268.373 318.193 266.054 314.647 263.735 310.964C253.643 294.461 246.96 276.049 243.959 256.954C243.55 254.363 239.594 255.454 240.004 258.045C242.459 274.276 247.778 289.96 255.279 304.418C259.098 311.646 263.462 318.602 268.372 325.149C270.418 327.74 273.555 331.559 271.782 335.105C271.237 336.196 270.146 337.287 268.782 337.014C267.145 336.742 266.19 334.696 265.508 333.332C263.19 329.24 261.007 325.149 258.825 321.193C256.916 317.647 255.143 313.692 252.552 310.555C250.506 307.964 247.369 305.918 243.959 306.736C240.549 307.554 238.504 310.828 238.231 314.101C237.822 318.056 239.867 321.739 241.64 325.149C243.686 329.104 245.596 333.059 247.369 337.151C250.915 345.334 253.779 353.79 255.961 362.383C256.37 364.019 256.916 365.656 256.643 367.429C256.37 369.611 254.734 368.793 253.37 367.702C249.96 364.701 246.959 361.155 244.095 357.609C238.23 350.381 233.457 342.334 229.774 333.877C228.683 331.422 225.137 333.605 226.228 335.923C229.775 343.697 234.139 351.199 239.322 358.018C241.913 361.428 244.777 364.838 247.778 367.975C250.233 370.566 253.779 374.658 257.871 372.475C260.871 370.839 261.007 367.156 260.462 364.156C259.78 359.791 258.28 355.427 256.916 351.335C254.052 342.47 250.506 333.741 246.278 325.421C244.641 322.012 241.368 317.784 242.322 313.828C242.595 312.464 243.55 311.101 244.914 310.828C246.687 310.555 248.187 312.055 249.142 313.283C250.233 314.647 251.051 316.147 251.87 317.647C253.097 319.966 254.461 322.284 255.688 324.603C257.87 328.695 260.053 332.923 262.508 336.878C264.281 339.879 267.418 342.334 271.1 340.97C274.237 339.742 276.419 336.196 276.147 332.786C276.283 328.286 273.419 324.876 270.964 321.603Z" fill="#DCDCDC"/>
<path d="M186.676 373.43C186.267 370.02 186.131 366.474 186.267 363.065C184.903 362.928 183.539 362.655 182.176 362.383C182.039 365.656 182.176 368.929 182.448 372.203" fill="#DCDCDC"/>
<path d="M191.041 405.48C212.863 435.486 231.958 437.941 239.186 440.123C241.778 440.805 242.869 436.85 240.277 436.168C219.137 430.03 201.679 414.619 192.814 394.842" fill="#DCDCDC"/>
<path d="M346.525 322.699C346.797 320.653 347.616 318.607 348.843 316.97C352.389 312.333 358.527 310.424 363.846 308.787C366.846 307.832 369.847 307.014 372.848 306.332L359.754 254.641L337.932 260.096L325.93 309.06C325.93 309.06 337.796 311.651 346.525 322.699Z" fill="#94C020"/>
<path d="M357.572 353.931C360.299 350.794 363.3 347.794 366.437 345.066C370.665 341.52 375.166 338.246 380.076 335.519L377.757 326.517C373.392 327.744 369.164 329.927 364.936 331.29C360.981 332.654 356.071 333.745 351.979 332.245C354.571 338.792 355.935 347.248 354.844 357.886C355.662 356.659 356.617 355.159 357.572 353.931Z" fill="#94C020"/>
<path d="M382.122 396.212C379.803 395.939 377.075 395.257 375.711 393.211C374.62 391.574 375.03 389.529 375.848 387.892C378.167 383.664 382.94 380.527 387.032 377.936C383.895 379.299 380.758 380.663 377.757 382.3C373.802 384.346 369.574 386.664 364.937 385.71C360.709 384.891 357.981 381.209 358.39 376.981C358.663 374.117 360.3 371.662 362.209 369.343C359.481 368.934 357.163 367.706 355.39 364.979C354.844 364.16 354.571 363.342 354.435 362.524C354.162 364.57 353.753 366.752 353.207 368.934C341.205 420.08 297.697 429.9 297.697 429.9L290.06 484.319L410.9 457.041L395.488 395.939C390.987 396.757 386.623 396.894 382.122 396.212Z" fill="#94C020"/>
<path d="M286.241 420.214C285.559 419.259 286.104 418.032 286.923 417.35C287.877 416.668 289.105 417.213 289.786 418.032C292.378 421.987 295.106 425.806 297.697 429.761C298.379 430.716 297.833 431.943 297.015 432.625C296.06 433.307 294.833 432.762 294.151 431.943C291.56 427.988 288.968 424.169 286.241 420.214ZM353.753 423.351C357.026 427.851 364.528 436.717 358.39 441.9C355.662 444.218 351.707 443.127 349.389 440.672C346.797 437.944 345.16 434.262 342.842 431.261C340.66 428.397 338.068 425.26 335.068 423.214C333.977 422.396 331.794 421.305 330.43 422.669C329.339 423.896 330.567 425.942 331.249 427.033C333.295 430.579 335.75 433.989 338.068 437.535C340.523 441.218 342.978 445.036 345.433 448.719C346.933 450.901 343.388 452.947 341.887 450.765C339.159 446.673 336.568 442.581 333.84 438.49C332.476 436.444 331.112 434.398 329.748 432.352C328.521 430.579 327.294 428.806 326.475 426.76C325.384 423.623 326.066 420.077 329.339 418.713C332.613 417.213 335.886 418.713 338.478 420.759C341.478 423.214 344.069 426.215 346.388 429.215C347.615 430.852 348.706 432.352 349.798 434.125C350.752 435.626 351.571 437.535 352.935 438.626C354.162 439.581 355.799 439.717 356.344 438.081C356.89 436.58 356.208 435.08 355.39 433.716C353.617 430.443 351.298 427.306 348.979 424.169C344.479 418.032 339.432 412.44 333.84 407.257C325.111 418.031 313.927 426.76 301.243 432.352C298.516 450.083 295.788 467.813 293.06 485.544C292.651 487.999 289.241 487.181 289.105 484.862C288.832 484.726 288.559 484.453 288.423 484.18C285.149 479.134 281.467 474.496 277.239 470.132C276.557 469.45 276.557 468.632 276.83 468.086C279.694 451.038 282.694 433.989 285.559 416.804C285.831 415.577 286.786 415.167 287.604 415.44C299.607 413.394 310.927 408.757 320.883 401.665C332.749 393.209 342.569 381.07 348.025 367.295C348.298 366.067 348.434 364.84 348.57 363.612C348.707 363.067 349.116 362.521 349.661 362.249C350.616 359.384 351.298 356.52 351.707 353.52C353.207 344.245 351.98 334.562 347.07 326.515C342.296 318.877 334.113 313.694 325.248 312.33C324.702 312.467 324.02 312.467 323.475 312.194C322.929 312.194 322.384 312.058 321.974 312.058C320.065 312.058 319.519 309.875 320.338 308.784C317.61 305.92 314.882 303.056 312.018 300.192C310.654 300.328 309.29 299.373 309.699 297.737C315.155 280.415 318.701 262.548 320.338 244.409C319.792 243.181 320.474 241.545 322.111 241.545C322.384 241.408 322.793 241.408 323.066 241.545C328.385 241.408 333.567 240.453 338.614 238.68C339.023 238.271 339.705 237.998 340.25 238.135C341.069 237.998 342.023 238.68 342.296 239.362C347.615 243.863 353.071 248.364 358.39 252.728C358.39 252.728 358.39 252.865 358.527 252.865C358.799 252.865 359.072 252.865 359.345 252.865C360.436 253.001 361.391 253.683 361.391 254.911C361.391 255.865 360.436 257.093 359.345 256.956C353.071 256.275 346.797 257.366 341.205 260.366C340.251 260.912 339.432 260.639 338.886 259.957C338.75 260.093 338.614 260.23 338.341 260.366C335.068 276.596 331.249 292.69 326.884 308.648C337.25 310.557 346.388 317.104 351.434 326.515C358.39 339.472 356.89 354.611 351.571 367.977C350.616 373.569 348.979 379.024 346.797 384.344C343.933 391.299 340.251 397.846 335.75 403.847C342.842 409.712 348.57 416.258 353.753 423.351ZM352.935 252.865C348.706 249.319 344.615 245.909 340.387 242.363C335.75 244 330.976 244.954 326.203 245.227C330.567 249.182 335.068 253.001 339.432 256.956C339.569 256.82 339.705 256.82 339.841 256.684C343.797 254.502 348.297 253.274 352.935 252.865ZM315.155 297.055C318.019 300.055 321.02 303.056 323.884 306.056C328.112 290.372 331.794 274.687 335.068 258.73C335.068 258.593 335.068 258.593 335.204 258.457C331.658 255.32 328.112 252.183 324.566 249.046C322.793 265.14 319.519 281.097 314.882 296.646C314.882 296.782 315.019 296.918 315.155 297.055ZM342.16 385.98C329.612 403.302 310.381 415.304 289.378 418.986C286.65 435.217 283.786 451.583 281.058 467.813C284.331 471.223 287.332 474.906 290.06 478.861C292.378 463.858 294.697 448.855 297.015 433.853C294.56 434.807 293.469 430.852 295.924 429.897C296.606 429.625 297.288 429.352 297.834 429.079C298.243 428.261 299.061 428.124 299.743 428.261C304.38 426.215 308.881 423.623 313.109 420.759C325.793 412.03 335.886 399.892 342.16 385.98ZM333.84 451.856C333.295 450.901 331.931 450.492 330.976 451.174C330.021 451.72 329.612 452.947 330.294 454.038C332.613 457.721 334.931 461.539 337.386 465.222C337.932 466.177 339.296 466.586 340.25 465.904C341.205 465.358 341.614 464.131 340.932 463.04C338.614 459.357 336.295 455.538 333.84 451.856ZM365.482 290.917C362.618 286.28 359.345 282.052 355.662 278.097C353.753 276.051 351.707 274.141 349.661 272.232C347.752 270.595 345.706 268.549 343.387 267.868C341.069 267.322 338.614 268.413 337.932 270.868C337.25 273.187 338.204 275.915 338.886 278.233C340.387 283.689 342.296 289.008 344.751 294.191C347.479 299.919 350.616 305.511 354.298 310.694C355.799 312.876 359.345 310.83 357.845 308.648C350.752 298.828 345.57 287.78 342.569 276.051C342.296 275.233 341.478 273.187 341.887 272.232C342.433 271.277 344.069 272.778 344.615 273.323C346.934 275.096 348.979 277.142 351.025 279.188C355.253 283.416 358.799 288.053 361.936 293.099C363.3 295.282 366.846 293.236 365.482 290.917Z" fill="#DCDCDC"/>
<path d="M136.209 440.226C179.229 321.588 -5.33263 311.893 107.125 226.701C125.666 213.613 146.873 200.041 152.811 178.228C158.386 157.627 148.691 136.177 148.57 114.728C164.687 -1.48678 303.684 24.4464 378.818 70.8596C409.235 86.1287 443.53 106.73 447.044 140.54C448.377 153.749 444.62 167.443 448.983 180.046C472.492 226.58 543.991 205.009 555.867 290.928C562.532 386.542 467.767 375.029 444.378 434.894" fill="#171D07"/>
<path d="M471.402 418.78C444.863 383.152 409.114 349.827 385.483 333.346C373.607 324.984 361.61 318.804 349.734 314.199C343.917 297.475 338.464 281.116 333.011 263.059C338.464 262.696 343.796 260.515 347.553 256.637C362.095 241.125 348.038 218.222 330.103 219.555C332.769 198.832 337.131 177.989 325.134 159.69C275.934 105.4 221.886 201.62 187.47 227.553C187.47 227.553 217.524 239.307 232.308 245.003C232.308 245.003 229.642 299.778 228.793 324.015C198.376 340.738 173.17 366.429 156.932 393.816H14.9051C5.93753 393.816 -0.364053 404.117 2.42316 414.175L35.3852 533.419C37.203 539.842 42.1712 544.204 47.8669 544.204H53.1991C56.471 554.384 66.0444 561.897 77.3144 561.897H278.842C293.263 562.018 304.291 550.021 304.291 535.964C313.379 545.295 365.488 561.897 402.207 561.897C426.443 561.897 484.611 556.807 493.094 552.202C521.33 536.933 516.725 470.767 471.402 418.78ZM227.218 528.087C227.218 526.633 226.976 525.3 226.612 523.846L218.372 494.156C221.159 493.307 223.825 492.58 226.491 491.974C227.824 493.065 229.763 494.035 232.55 494.398C243.336 495.489 255.211 491.126 264.906 498.155C270.602 502.275 273.147 509.304 277.024 515.12C281.023 520.816 286.598 525.3 292.899 528.087C282.114 528.087 257.15 528.087 227.218 528.087ZM304.291 531.601C304.169 531.723 304.169 531.723 304.048 531.844C303.927 531.601 303.927 531.48 303.806 531.238C304.048 531.238 304.291 531.359 304.654 531.359C304.412 531.48 304.412 531.48 304.291 531.601Z" fill="#111217"/>
<path d="M111.73 213.617L56.1067 230.341C46.8967 233.128 37.3232 227.917 34.536 218.707C31.264 204.165 15.0256 175.929 37.6869 168.901L93.3098 152.177C102.52 149.39 112.093 154.601 114.88 163.811C118.152 178.353 134.391 206.589 111.73 213.617Z" fill="#94C020"/>
<path d="M30.415 183.686C42.8969 190.836 55.621 197.744 68.4664 204.166C70.0418 205.014 71.6174 205.742 73.1927 206.469C74.5258 207.196 75.9799 208.044 77.4341 208.408C79.7366 208.892 82.1604 208.408 83.8569 206.832C84.8264 205.863 85.3109 204.772 85.7957 203.56C86.5228 201.864 87.371 200.167 88.2193 198.471C89.7947 195.077 91.3703 191.806 92.9457 188.412C96.46 180.778 100.095 173.264 103.61 165.63C104.579 163.57 101.428 161.631 100.459 163.812C94.521 176.415 88.7041 188.897 82.7661 201.5C81.7966 203.439 81.0697 205.62 78.4037 205.014C77.1918 204.772 76.1011 203.924 75.0105 203.439C73.4351 202.712 71.8595 201.864 70.2842 201.137C64.225 198.107 58.1658 194.956 52.1067 191.684C45.4416 188.049 38.7767 184.413 32.2328 180.535C30.1727 179.445 28.3549 182.596 30.415 183.686Z" fill="#DCDCDC"/>
<path d="M276.418 39.3542C275.57 91.8266 197.528 91.8266 196.559 39.3542C197.407 -13.1181 275.449 -13.1181 276.418 39.3542Z" fill="#BB7785"/>
<path d="M250.364 29.1761C247.092 23.2381 238.73 22.6322 234.004 27.2372C231.702 29.5397 230.853 32.6904 231.217 35.72C230.247 34.5082 228.914 33.5387 227.339 33.054C224.915 32.3269 222.007 32.8116 219.947 34.2658C217.765 35.8412 216.19 38.2648 216.311 41.0521C216.432 44.6876 219.099 47.3536 222.007 49.2925C224.188 50.7467 226.733 51.7162 229.278 52.5645C232.792 53.7763 236.306 54.5034 239.942 55.1093C241.154 55.3517 242.245 55.4729 243.456 55.594C244.426 55.7152 245.274 54.6246 245.274 53.7763C245.274 53.4127 245.153 53.1704 245.032 52.928C245.395 48.8078 247.94 45.2935 249.637 41.658C251.697 37.7801 252.666 33.2963 250.364 29.1761ZM246.001 41.1733C244.305 44.5664 242.244 47.9595 241.517 51.8374C238.609 51.3526 235.579 50.7467 232.671 50.0196C231.338 49.6561 229.884 49.1713 228.551 48.6866C228.308 48.5654 227.945 48.4442 227.703 48.3231H227.581C227.46 48.2019 227.218 48.2019 227.097 48.0807C226.612 47.8383 226.127 47.596 225.643 47.3536C224.794 46.8689 223.946 46.3841 223.098 45.7782C223.098 45.7782 222.734 45.5358 222.976 45.657C223.219 45.8994 222.976 45.657 222.855 45.5358C222.734 45.4147 222.492 45.2935 222.37 45.1723C222.128 44.9299 221.765 44.6876 221.522 44.324C221.401 44.2028 221.28 44.0816 221.159 43.9605L221.038 43.8393C220.916 43.5969 220.674 43.3545 220.553 42.991C220.431 42.8698 220.432 42.7486 220.31 42.6274C220.189 42.3851 220.068 42.1427 220.068 41.7792C220.068 41.658 220.068 41.658 220.068 41.5368C220.068 41.5368 220.068 41.5368 220.068 41.4156C220.068 41.1732 220.068 40.9309 220.068 40.6885V40.8097V40.6885C220.068 40.4461 220.068 40.5673 220.068 40.6885C220.068 40.5673 220.068 40.5673 220.068 40.4461C220.068 40.2038 220.189 39.9614 220.31 39.719C220.31 39.5979 220.432 39.4767 220.432 39.4767C220.553 39.2343 220.674 38.992 220.795 38.8708C220.916 38.7496 220.916 38.7496 221.038 38.6284C221.159 38.386 221.401 38.2649 221.522 38.1437C221.643 38.0225 221.643 38.0225 221.764 37.9013C222.007 37.7801 222.128 37.6589 222.37 37.5378C222.613 37.4166 222.734 37.2954 222.976 37.1742C223.097 37.1742 223.219 37.053 223.34 37.053C223.582 36.9318 223.825 36.9318 224.067 36.8106C224.188 36.8106 224.188 36.8106 224.309 36.8106C224.309 36.8106 224.31 36.8106 224.431 36.8106C224.673 36.8106 224.915 36.8106 225.158 36.8106C225.279 36.8106 225.4 36.8106 225.521 36.8106C225.764 36.8106 226.006 36.9318 226.248 36.9318C226.37 36.9318 226.491 37.053 226.612 37.053C226.854 37.1742 227.097 37.2954 227.339 37.4166C227.46 37.4166 227.46 37.5378 227.581 37.5378C227.581 37.5378 227.703 37.5378 227.703 37.6589C227.945 37.9013 228.187 38.0225 228.309 38.2649L228.43 38.386C228.43 38.5072 228.551 38.6284 228.672 38.6284C228.915 38.8708 229.036 39.2343 229.157 39.4767C229.278 39.5979 229.278 39.719 229.399 39.8402C229.399 39.9614 229.399 39.9614 229.52 40.0826C229.642 40.4461 229.763 40.8097 229.884 41.2944C230.126 42.2639 231.217 42.8698 232.065 42.5063C233.035 42.2639 233.64 41.1732 233.277 40.325C233.156 39.9614 233.035 39.5979 232.914 39.2343C234.125 39.4767 235.579 38.5072 235.095 37.053C234.852 36.3259 234.731 35.72 234.61 34.9929C234.61 34.2658 234.61 33.6599 234.731 33.1752C234.974 32.0845 235.458 30.9939 236.185 30.3879C237.761 28.6914 239.821 27.8431 242.123 27.9643C243.093 27.9643 244.062 28.3278 245.032 28.9337C246.001 29.5397 246.728 30.3879 247.334 31.4786C249.031 34.6294 247.576 38.1437 246.001 41.1733Z" fill="#DCDCDC"/>
<path d="M221.037 43.7167C221.158 43.7167 221.158 43.7167 221.037 43.7167C221.158 43.8379 221.158 43.8379 221.158 43.8379C221.279 43.8379 221.158 43.7167 221.037 43.7167Z" fill="#DCDCDC"/>
<path d="M427.777 127.212C430.079 126.848 431.049 130.363 428.746 130.726C423.899 131.575 418.931 131.453 414.083 130.969C409.115 130.484 404.025 129.636 399.178 128.181C394.936 126.848 390.695 125.152 387.302 122.243C384.515 119.82 382.697 116.548 383.182 112.791C383.909 107.823 387.787 103.824 391.543 100.794C391.422 101.279 391.18 101.642 391.059 102.127C390.937 99.4611 390.089 97.2798 388.635 95.0985C387.544 93.5231 386.332 91.9477 385.969 90.0088C385.605 87.7063 386.575 85.6462 388.029 83.8284C389.12 82.4954 390.331 81.2836 391.665 80.0717C391.907 79.8294 392.391 79.587 392.634 79.2235C392.876 78.9811 392.876 78.1328 392.876 77.7693C393.119 76.921 393.361 76.0727 393.603 75.2244C395.179 70.0135 398.087 64.9238 402.934 62.2578C412.993 56.8046 425.111 63.3485 433.23 69.4076C432.382 70.1347 431.412 70.7406 430.564 71.4677C429.595 65.5298 430.806 59.107 433.23 53.5326C435.169 48.9277 438.684 43.9592 444.016 43.1109C445.349 42.8685 446.682 42.9897 448.015 43.2321C449.59 43.5956 450.438 44.2015 451.408 45.5345C452.619 47.3523 453.104 49.7759 453.104 51.9572C453.104 57.2893 451.165 62.379 451.165 67.7111C451.044 75.4668 455.043 81.6471 460.739 86.7368C462.557 88.3122 459.891 90.857 458.194 89.2817C452.135 83.9496 447.893 77.2845 447.53 69.1653C447.287 63.9544 448.863 58.9859 449.348 53.8962C449.469 52.1996 449.59 50.2607 448.984 48.5641C448.742 48.0794 448.378 47.5946 448.136 47.1099C448.015 46.8675 447.651 46.7464 448.257 47.1099C448.015 46.9887 447.651 46.9887 447.287 46.8675C446.439 46.6252 445.47 46.6252 444.622 46.8675C440.259 47.7158 437.593 52.5632 436.26 56.441C434.684 60.8036 433.594 66.0145 434.321 70.6194C434.563 71.9525 433.109 73.7702 431.655 72.6796C423.778 66.7416 409.842 58.9859 401.48 68.4382C399.784 70.3771 398.572 72.9219 397.724 75.3456C397.118 77.0422 396.754 78.6175 396.391 80.3141C396.027 82.0107 393.967 83.1013 392.755 84.4343C391.422 85.7673 389.726 87.5851 389.847 89.4029C389.847 89.7664 390.21 90.4935 390.574 90.9782C390.937 91.7053 391.422 92.3112 391.907 93.0383C393.119 94.8561 394.088 96.795 394.573 98.8551C394.815 100.188 395.421 102.248 394.451 103.339C393.603 104.308 392.391 105.035 391.543 106.005C390.089 107.459 388.635 109.156 387.786 111.095C387.18 112.306 386.938 113.882 387.059 114.851C387.544 117.639 389.847 119.699 392.391 121.274C395.785 123.334 399.784 124.546 403.662 125.515C411.054 127.454 420.021 128.545 427.777 127.212ZM449.348 137.755C450.923 129.151 452.741 120.547 455.892 112.306C457.467 108.186 459.527 104.066 462.435 100.794C463.647 99.461 464.98 98.128 466.677 97.2798C467.404 96.9162 468.131 96.5527 468.858 96.3103C469.828 96.0679 470.797 96.4315 471.645 96.9162C475.523 99.0975 476.008 104.551 475.766 108.429C475.523 110.973 475.16 113.276 474.675 115.942C473.221 123.334 471.16 130.847 467.767 137.513C466.313 140.421 464.374 143.693 461.708 145.389C460.496 146.117 459.648 146.48 458.315 146.359C457.225 146.238 455.77 145.632 454.558 144.662C452.741 143.208 450.196 145.753 452.013 147.207C467.161 159.204 475.281 129.151 477.462 119.456C479.037 112.185 481.34 102.975 476.493 96.4315C474.917 94.3713 472.857 92.9172 470.312 92.4324C468.131 92.0689 465.829 93.1595 464.011 94.3713C460.133 96.9162 457.346 100.794 455.164 104.914C450.075 114.73 447.772 125.758 445.712 136.543C445.47 139.088 448.984 140.057 449.348 137.755Z" fill="#DCDCDC"/>
<path d="M580.346 343.039L509.817 354.673C496.729 356.854 484.247 347.887 482.066 334.799C479.036 314.804 468.494 284.75 497.335 278.933L567.864 267.3C580.952 265.119 593.433 274.086 595.615 287.174C598.644 307.169 609.187 337.223 580.346 343.039Z" fill="#94C020"/>
<path d="M520.967 296.143C523.027 302.566 524.481 309.11 525.814 315.654C526.541 319.774 527.147 323.894 528.359 327.893C529.086 330.317 530.419 332.983 533.206 333.468C536.357 333.952 539.508 331.65 541.931 330.075C548.596 325.591 554.655 320.38 560.836 315.29C561.563 314.684 561.442 313.351 560.836 312.745C552.474 303.899 541.446 297.476 529.57 294.689C527.268 294.204 526.299 297.719 528.601 298.203C539.992 300.869 550.293 306.807 558.291 315.29C558.291 314.442 558.291 313.594 558.291 312.745C552.959 317.108 547.506 321.592 541.931 325.712C540.356 326.924 538.659 328.014 536.963 328.984C536.599 329.105 536.357 329.348 535.993 329.469C535.751 329.59 535.872 329.59 535.387 329.711C535.145 329.832 534.903 329.832 534.66 329.953C534.539 329.953 534.418 329.953 534.297 330.075C534.539 330.075 534.66 330.075 534.297 330.075C534.175 330.075 533.569 330.075 533.812 330.075C534.054 330.075 533.57 329.953 533.448 329.953C533.933 330.196 533.448 329.953 533.327 329.832C533.812 330.196 533.327 329.711 533.085 329.59C532.842 329.348 533.206 329.832 533.085 329.59C532.964 329.469 532.964 329.348 532.843 329.348C532.721 329.105 532.6 328.863 532.479 328.62C532.237 328.136 532.479 328.62 532.237 328.136C532.115 327.772 531.994 327.53 531.873 327.166C530.782 323.531 530.297 319.653 529.57 315.896C528.237 308.989 526.662 302.081 524.602 295.295C523.754 292.993 520.239 293.962 520.967 296.143Z" fill="#DCDCDC"/>
<path d="M179.593 141.388C178.987 140.54 179.472 139.449 180.199 138.843C181.047 138.237 182.138 138.722 182.743 139.449C182.865 139.692 182.986 139.934 183.228 140.055C182.865 139.692 183.349 140.176 183.471 140.297C183.713 140.661 183.955 140.903 184.319 141.146C184.44 141.267 184.682 141.388 184.803 141.509C184.561 141.267 184.682 141.388 184.803 141.509L184.925 141.63C185.167 141.873 185.531 141.994 185.894 142.115C186.015 142.115 186.015 142.236 186.137 142.236C186.5 142.358 185.652 142.115 186.015 142.236C186.136 142.236 186.258 142.358 186.379 142.358C186.621 142.479 186.985 142.479 187.348 142.6C186.985 142.479 186.985 142.6 187.227 142.6C187.348 142.6 187.349 142.6 187.47 142.6C187.591 142.6 187.712 142.6 187.954 142.6C188.076 142.6 188.197 142.6 188.318 142.6C188.439 142.6 188.803 142.6 188.439 142.6C188.075 142.6 188.318 142.6 188.439 142.6C188.681 142.6 188.924 142.479 189.166 142.358C189.287 142.358 189.409 142.236 189.53 142.236H189.651C189.893 142.115 189.409 142.358 189.409 142.358C189.651 142.236 189.893 142.115 190.136 141.994C190.378 141.873 190.62 141.752 190.742 141.63C190.984 141.509 190.378 141.873 190.62 141.752L190.742 141.63C190.863 141.509 190.984 141.509 191.105 141.388C191.226 141.267 191.469 141.025 191.59 140.903C191.711 140.782 191.832 140.661 191.953 140.54C191.711 140.903 192.075 140.297 191.953 140.54C192.075 140.297 192.196 140.055 192.317 139.934C192.438 139.692 192.559 139.449 192.68 139.207C192.802 138.964 192.559 139.449 192.559 139.449C192.559 139.328 192.68 139.328 192.68 139.207C192.68 139.086 192.802 138.964 192.802 138.843C192.923 138.601 192.923 138.359 193.044 137.995C193.044 137.389 193.044 137.753 193.044 137.995C193.044 137.874 193.044 137.753 193.044 137.631C193.044 137.389 193.044 137.147 193.044 136.783C193.044 136.662 193.044 136.541 193.044 136.42C193.044 136.177 193.165 136.904 193.044 136.662V136.541C193.044 136.298 192.923 135.935 192.802 135.693C192.559 135.208 192.802 135.571 192.802 135.693C192.681 135.571 192.681 135.45 192.559 135.329C192.438 135.087 192.317 134.844 192.074 134.602L191.953 134.481C191.711 134.238 192.196 134.723 192.074 134.602C191.953 134.481 191.832 134.359 191.832 134.238C191.59 133.996 191.348 133.754 191.105 133.511C190.984 133.511 190.984 133.39 190.863 133.39C190.863 133.39 191.226 133.632 190.984 133.511C190.863 133.39 190.621 133.269 190.499 133.148C190.136 132.905 189.772 132.784 189.409 132.542C189.287 132.421 189.045 132.421 188.924 132.299C188.803 132.299 188.682 132.178 188.682 132.178C188.803 132.178 189.045 132.299 188.682 132.178C188.56 132.178 188.56 132.178 188.439 132.178C188.56 132.178 188.56 132.178 188.682 132.178C188.56 132.178 188.439 132.178 188.318 132.178C188.076 132.178 187.954 132.178 187.712 132.178C187.591 132.178 187.47 132.178 187.348 132.178C187.348 132.178 187.833 132.057 187.47 132.178C187.227 132.178 186.985 132.299 186.864 132.299C186.621 132.299 186.379 132.421 186.258 132.542C185.894 132.663 186.5 132.421 186.258 132.542C186.137 132.542 186.015 132.663 185.894 132.663C185.531 132.905 185.167 133.026 184.803 133.269C184.44 133.511 185.046 133.026 184.682 133.269C184.561 133.39 184.44 133.39 184.319 133.511C184.198 133.632 184.076 133.754 183.955 133.875C183.834 133.996 183.592 134.238 183.471 134.359C183.228 134.723 183.592 134.117 183.471 134.359C183.349 134.481 183.35 134.602 183.228 134.602C182.986 134.965 182.622 135.45 182.622 135.814C182.744 135.45 182.744 135.693 182.622 135.693C182.622 135.814 182.501 135.935 182.501 136.056C182.38 136.298 182.38 136.42 182.38 136.662C182.38 136.783 182.38 136.904 182.259 137.026C182.138 137.51 182.259 136.662 182.259 137.026C182.259 137.147 182.259 137.389 182.259 137.51C182.259 137.631 182.38 138.116 182.259 138.237C182.259 138.116 182.138 137.874 182.259 138.116C182.259 138.237 182.259 138.359 182.38 138.48C182.622 139.449 182.137 140.419 181.168 140.661C180.32 140.903 179.108 140.297 178.987 139.449C177.775 134.117 182.016 128.906 187.227 128.3C187.712 128.3 188.197 128.179 188.682 128.3C189.409 128.422 190.015 128.543 190.742 128.906C191.469 129.27 192.196 129.633 192.923 130.118C194.377 131.209 195.468 132.542 196.195 134.238C197.286 136.783 196.679 139.934 195.104 142.115C193.407 144.539 190.863 146.114 187.954 146.235C184.44 146.599 181.532 144.175 179.593 141.388ZM565.076 459.009C567.015 461.675 569.802 463.735 573.196 463.493C576.104 463.251 578.649 461.675 580.346 459.373C581.921 457.191 582.527 454.162 581.678 451.617C581.194 450.163 580.224 448.709 579.012 447.739C578.164 447.012 577.316 446.406 576.346 446.043C575.498 445.679 574.529 445.558 573.559 445.558C569.197 445.558 564.713 448.709 564.107 453.192C563.986 454.162 564.349 455.131 565.319 455.374C566.167 455.616 567.379 455.131 567.5 454.162C567.5 453.798 567.621 453.435 567.742 453.071C567.742 452.95 567.742 452.95 567.864 452.829C567.864 452.708 567.864 452.708 567.864 452.95C567.864 452.829 568.106 452.587 568.106 452.344C568.227 452.223 568.227 452.102 568.348 451.859C568.348 451.738 568.47 451.738 568.47 451.617C568.712 451.375 568.47 451.617 568.47 451.738C568.591 451.375 569.075 451.011 569.318 450.89C569.318 450.89 569.802 450.526 569.56 450.648C569.318 450.89 569.681 450.526 569.681 450.526C569.803 450.526 569.803 450.405 569.924 450.405C570.287 450.163 570.651 450.042 570.893 449.799C571.014 449.799 571.014 449.678 571.136 449.678C570.772 449.799 570.893 449.799 571.015 449.678C571.257 449.557 571.378 449.557 571.62 449.436C571.863 449.436 571.984 449.315 572.226 449.315C572.348 449.315 572.347 449.315 572.469 449.315C572.59 449.315 572.953 449.193 572.59 449.315C572.347 449.436 572.711 449.315 572.711 449.315C572.832 449.315 572.832 449.315 572.953 449.315C573.074 449.315 573.317 449.315 573.438 449.315C573.559 449.315 573.802 449.315 573.923 449.315C573.68 449.193 574.286 449.315 573.923 449.315C574.044 449.315 574.165 449.315 574.286 449.315C574.529 449.315 574.65 449.436 574.892 449.436C575.014 449.436 575.498 449.678 575.256 449.557C575.014 449.436 575.377 449.678 575.377 449.678C575.498 449.678 575.498 449.799 575.619 449.799C575.74 449.921 575.983 450.042 576.104 450.163C576.225 450.284 576.346 450.284 575.983 450.163C576.104 450.163 576.104 450.284 576.225 450.284C576.346 450.405 576.468 450.526 576.589 450.648C576.831 450.89 577.074 451.132 577.316 451.375L577.437 451.496C577.558 451.617 577.195 451.132 577.316 451.375C577.437 451.496 577.437 451.617 577.558 451.738C577.68 451.981 577.801 452.223 578.043 452.465C577.922 452.223 578.285 452.829 578.043 452.465C578.043 452.587 578.164 452.708 578.164 452.829C578.285 453.071 578.285 453.314 578.407 453.677C578.407 453.192 578.528 454.041 578.407 453.677C578.407 453.798 578.407 453.92 578.407 454.041C578.407 454.283 578.407 454.525 578.407 454.889C578.407 455.374 578.528 454.525 578.407 454.889C578.407 455.01 578.407 455.131 578.286 455.253C578.286 455.495 578.164 455.737 578.043 456.101C578.043 456.222 577.922 456.343 577.922 456.464C577.801 456.707 578.164 456.101 577.922 456.464C577.801 456.707 577.68 456.949 577.558 457.191C577.437 457.434 577.316 457.676 577.074 457.919C576.953 458.161 577.316 457.555 577.074 457.919C576.953 458.04 576.831 458.161 576.831 458.282C576.71 458.525 576.468 458.646 576.346 458.767C576.225 458.888 576.225 458.888 576.104 459.009C575.741 459.373 576.347 458.888 576.104 459.009C575.619 459.252 575.256 459.494 574.771 459.736C574.529 459.858 575.256 459.615 574.771 459.736C574.65 459.736 574.529 459.857 574.407 459.857C574.165 459.979 573.923 459.979 573.559 460.1H573.438C573.196 460.221 573.802 460.1 573.559 460.1C573.438 460.1 573.317 460.1 573.075 460.1C572.832 460.1 572.469 460.1 572.226 460.1C571.863 460.1 572.711 460.221 572.226 460.1C572.105 460.1 571.984 460.1 571.741 459.979C571.62 459.979 571.378 459.857 571.257 459.857C571.136 459.857 571.136 459.858 571.136 459.736C570.772 459.615 571.136 459.858 571.257 459.736C571.136 459.736 570.53 459.373 570.409 459.252C570.287 459.13 570.166 459.009 569.924 459.009C569.803 458.888 569.803 458.888 570.045 459.13C570.045 459.009 569.803 459.009 569.803 458.888C569.56 458.646 569.197 458.403 568.954 458.04C568.833 457.919 568.712 457.797 568.591 457.555C568.349 457.191 568.47 457.434 568.591 457.555C568.47 457.434 568.469 457.313 568.348 457.191C567.742 456.464 566.773 455.98 565.804 456.586C564.955 457.07 564.47 458.282 565.076 459.009ZM485.58 244.151C485.58 243.909 485.459 243.788 485.459 243.546C485.58 244.03 485.459 243.788 485.459 243.667C485.459 243.546 485.459 243.546 485.459 243.424C485.459 243.303 485.459 243.061 485.459 242.94C485.459 242.818 485.58 242.455 485.459 243.061C485.459 242.94 485.459 242.818 485.459 242.697C485.459 242.576 485.58 242.334 485.58 242.213C485.58 242.091 485.944 241.485 485.58 241.97C485.823 241.607 485.944 241.243 486.186 241.001L486.307 240.88C486.428 240.758 486.671 240.637 486.307 240.88C486.428 240.758 486.55 240.637 486.671 240.395C486.792 240.274 486.913 240.152 487.035 240.031C487.156 239.91 487.156 239.91 487.277 239.789C487.034 239.91 487.64 239.425 487.277 239.789C487.519 239.546 487.883 239.425 488.125 239.183C488.246 239.183 488.367 239.062 488.367 239.062C488.367 239.062 487.883 239.183 488.246 239.183C488.489 239.062 488.61 239.062 488.852 238.941C488.973 238.941 489.216 238.819 489.337 238.819C489.7 238.698 488.852 238.819 489.216 238.819C489.337 238.819 489.458 238.819 489.458 238.819C489.579 238.819 489.822 238.819 489.943 238.819C490.064 238.819 490.185 238.819 490.185 238.819C489.822 238.819 489.822 238.819 489.943 238.819C490.064 238.819 490.064 238.819 490.185 238.819C490.064 238.819 490.064 238.698 489.943 238.698C489.943 238.698 490.064 238.698 490.064 238.819C490.185 238.819 490.185 238.941 490.306 238.941C490.428 239.062 490.549 239.062 490.791 239.183C491.033 239.304 491.397 239.546 491.64 239.789C491.761 239.789 491.761 239.91 491.882 239.91C491.397 239.546 491.639 239.789 491.761 239.789C491.882 239.91 492.003 239.91 492.003 240.031C492.245 240.274 492.366 240.395 492.609 240.637L492.73 240.758C492.367 240.274 492.488 240.516 492.609 240.637C492.73 240.758 492.73 240.758 492.851 240.88C492.973 241.122 493.094 241.364 493.215 241.485C493.336 241.728 492.973 241.001 493.094 241.243C493.094 241.243 493.094 241.364 493.215 241.364C493.215 241.485 493.336 241.607 493.336 241.607C493.336 241.728 493.336 241.849 493.457 241.97C493.457 242.213 493.457 242.576 493.457 241.849C493.457 242.091 493.457 242.213 493.457 242.455C493.457 242.576 493.457 242.697 493.457 242.818V242.94C493.457 243.303 493.457 242.697 493.457 242.697C493.336 242.818 493.336 243.182 493.336 243.303C493.336 243.546 493.215 243.788 493.094 243.909C492.973 244.151 493.336 243.424 493.215 243.667C493.215 243.667 493.215 243.788 493.094 243.788C493.094 243.909 492.972 244.03 492.972 244.03C492.851 244.273 492.73 244.394 492.609 244.636C492.609 244.757 492.488 244.757 492.488 244.879C492.609 244.636 492.851 244.273 492.488 244.879C492.367 245 492.124 245.242 492.003 245.363C491.882 245.484 491.276 245.969 491.882 245.484C491.639 245.606 491.518 245.727 491.276 245.848C491.155 245.969 490.912 246.09 490.67 246.09C490.306 246.333 491.033 245.969 490.791 246.09C490.67 246.09 490.549 246.212 490.428 246.212C490.185 246.333 490.064 246.333 489.822 246.333C489.579 246.333 489.216 246.333 489.943 246.333C489.822 246.333 489.7 246.333 489.579 246.333C489.337 246.333 489.095 246.333 488.852 246.333C488.731 246.333 488.489 246.212 489.095 246.333H488.973C488.852 246.333 488.731 246.333 488.61 246.212C488.489 246.212 488.368 246.09 488.246 246.09C488.246 246.09 488.125 246.09 488.125 245.969C487.762 245.848 488.489 246.212 488.246 246.09C488.004 245.969 487.762 245.848 487.519 245.727C487.398 245.606 487.277 245.606 487.156 245.484C487.761 245.848 487.277 245.484 487.035 245.363C486.792 245.121 486.55 244.879 486.307 244.636L486.186 244.515C485.944 244.151 486.429 244.757 486.186 244.515C486.065 244.394 485.944 244.151 485.823 244.03C485.58 243.667 485.459 243.303 485.217 242.94C484.732 242.091 483.52 241.728 482.672 242.334C481.824 242.94 481.581 243.909 482.066 244.879C483.399 247.545 485.702 249.726 488.852 249.847C491.155 249.968 493.578 248.756 495.032 247.06C496.608 245.121 497.456 242.576 496.608 240.152C496.123 238.819 495.396 237.608 494.306 236.759C493.7 236.275 492.973 235.79 492.245 235.305C492.003 235.184 491.761 235.063 491.518 234.942C491.155 234.82 490.791 234.699 490.306 234.699C489.943 234.699 489.458 234.699 489.095 234.699C487.156 234.942 485.217 235.911 483.884 237.365C482.551 238.819 481.702 240.758 481.824 242.818C481.824 243.303 481.945 243.909 482.066 244.394C482.308 245.363 483.399 245.969 484.247 245.606C485.217 246.09 485.823 245.121 485.58 244.151ZM2.90771 260.148C5.21019 261.481 7.99735 261.844 10.421 260.632C12.2388 259.663 13.5717 257.603 13.9352 255.543C14.2988 253.24 13.8141 250.938 12.2388 249.241C11.3905 248.393 10.2997 247.787 9.08788 247.423C8.36078 247.181 7.63391 247.181 6.90682 247.06C5.93735 247.06 5.08901 247.302 4.11954 247.666C0.484048 249.362 -1.21263 254.573 0.968662 257.966C1.4534 258.815 2.66535 259.178 3.51363 258.572C4.36191 258.088 4.72546 256.997 4.11954 256.027C3.99836 255.906 3.99842 255.785 3.87724 255.664C3.75605 255.421 3.87724 255.785 3.87724 255.785C3.87724 255.785 3.75593 255.664 3.75593 255.543C3.75593 255.421 3.63463 255.179 3.63463 255.058C3.63463 254.937 3.63463 254.937 3.63463 254.816C3.63463 254.573 3.63463 255.179 3.63463 254.937C3.63463 254.573 3.63463 254.331 3.63463 253.967V253.725C3.75582 253.967 3.51345 254.088 3.63463 253.846C3.63463 253.604 3.75593 253.483 3.75593 253.24C3.75593 253.119 3.87724 252.998 3.87724 252.755L3.99824 252.513C3.99824 252.513 3.87706 252.877 3.99824 252.634C4.11943 252.271 4.36197 252.028 4.48315 251.786L4.60416 251.544C4.60416 251.544 4.36197 251.907 4.48315 251.665C4.60434 251.544 4.72528 251.422 4.84647 251.301C4.96765 251.18 5.08889 251.059 5.21007 250.938C5.45244 250.695 5.08907 251.059 5.08907 251.059C5.08907 251.059 5.33138 250.938 5.33138 250.816C5.45256 250.695 5.5738 250.695 5.69498 250.574C5.81617 250.574 5.81611 250.453 5.93729 250.453C6.17966 250.332 5.81599 250.574 5.81599 250.453C5.81599 250.453 6.17972 250.332 6.3009 250.332C6.42208 250.332 6.42202 250.332 6.54321 250.332C6.17966 250.332 6.90676 250.211 6.54321 250.332C6.78557 250.332 7.14906 250.332 7.39143 250.332C7.51261 250.332 7.51255 250.332 7.63374 250.332C7.63374 250.332 7.14906 250.211 7.39143 250.332C7.51261 250.332 7.63386 250.332 7.75504 250.453C7.99741 250.453 8.23959 250.574 8.48196 250.695C8.60314 250.695 8.72439 250.816 8.84557 250.816C8.84557 250.816 8.3609 250.574 8.60326 250.695C8.60326 250.695 8.72456 250.695 8.72456 250.816C8.96693 250.938 9.08811 251.059 9.33048 251.18C9.45166 251.18 9.4516 251.301 9.57279 251.301C9.57279 251.301 9.2093 250.938 9.33048 251.18L9.45148 251.301C9.57267 251.422 9.69391 251.544 9.81509 251.665C9.81509 251.665 10.0575 252.028 9.81509 251.665C9.57273 251.422 9.81521 251.665 9.9364 251.786C10.0576 251.907 10.1787 252.15 10.1787 252.271C10.1787 252.392 10.4211 252.634 10.1787 252.271C10.0575 251.907 10.1787 252.271 10.1787 252.392C10.2999 252.513 10.2997 252.755 10.2997 252.998C10.2997 253.119 10.2997 253.119 10.2997 253.24C10.4209 253.604 10.2997 252.755 10.2997 253.119C10.2997 253.483 10.2997 253.846 10.2997 254.21C10.2997 254.573 10.4209 253.846 10.2997 254.088C10.2997 254.21 10.2997 254.21 10.2997 254.331C10.2997 254.573 10.1787 254.694 10.1787 254.937C10.1787 255.058 10.0576 255.3 9.9364 255.421C10.1788 254.694 9.93628 255.421 9.81509 255.543C9.69391 255.664 9.69397 255.906 9.57279 256.027C9.57279 256.149 9.45148 256.149 9.45148 256.27C9.57267 256.027 9.81503 255.785 9.45148 256.27C9.3303 256.391 9.20906 256.512 9.08788 256.633C8.96669 256.633 8.96675 256.755 8.84557 256.755C8.72439 256.876 9.08788 256.633 9.08788 256.633L8.96687 256.755C8.84569 256.876 8.60314 256.997 8.48196 257.118C8.23959 257.239 7.99735 257.239 8.60326 257.118C8.48208 257.118 8.36084 257.239 8.23965 257.239C7.99729 257.36 7.8761 257.36 7.63374 257.36C7.39137 257.482 7.87604 257.36 7.87604 257.36C7.75486 257.36 7.75492 257.36 7.63374 257.36C7.51255 257.36 7.39131 257.36 7.27013 257.36C7.02776 257.36 6.78557 257.36 6.54321 257.36C6.66439 257.36 7.14912 257.36 6.54321 257.36C6.42202 257.36 6.30078 257.36 6.1796 257.239C5.93723 257.118 5.57374 256.997 5.33138 256.997C5.93729 257.118 5.33126 256.997 5.21007 256.876C5.08889 256.754 4.84664 256.755 4.72546 256.633C3.87718 256.149 2.66523 256.391 2.18049 257.239C1.81694 258.572 2.05943 259.663 2.90771 260.148Z" fill="#DCDCDC"/>
<path d="M316.287 240.035C322.104 234.339 330.466 231.431 338.585 232.521C339.555 232.642 340.403 233.248 340.403 234.339C340.403 235.187 339.555 236.278 338.585 236.157C331.435 235.187 324.043 237.611 318.832 242.701C317.257 244.276 314.712 241.731 316.287 240.035ZM280.417 264.392L280.296 264.271C280.296 264.271 280.296 264.392 280.417 264.392ZM268.783 192.652C269.268 193.5 270.48 193.864 271.328 193.258C272.177 192.652 272.419 191.683 271.934 190.713C271.086 189.138 270.238 187.562 269.389 185.987C268.905 185.139 267.693 184.775 266.845 185.381C265.996 185.987 265.754 186.956 266.239 187.926C267.087 189.501 267.935 191.077 268.783 192.652ZM267.208 272.269C267.208 272.391 267.208 272.391 267.208 272.269C267.208 272.391 267.208 272.391 267.208 272.269C267.208 272.391 267.208 272.269 267.208 272.269ZM267.208 272.269C267.208 272.391 267.208 272.391 267.208 272.269V272.269ZM304.896 533.54C305.017 533.54 305.017 533.54 304.896 533.54C304.896 533.54 305.017 533.54 304.896 533.54ZM288.052 360.733C289.021 364.611 287.688 368.731 284.537 371.155C280.902 373.821 275.327 373.457 272.055 370.307C269.026 367.519 268.299 362.793 269.753 359.037C271.328 354.674 275.206 352.008 279.811 352.129C281.023 352.129 281.629 353.22 281.508 354.189C282.477 354.432 283.447 354.795 284.416 355.401C286.234 356.613 287.446 358.552 288.052 360.733ZM281.387 368.731C281.387 368.731 281.629 368.61 281.387 368.731V368.731ZM284.659 363.52C284.659 363.157 284.659 362.793 284.659 362.551C284.659 362.43 284.659 362.43 284.659 362.43V362.308C284.659 362.187 284.537 361.945 284.537 361.824C284.416 361.46 284.295 361.097 284.174 360.854C284.174 360.733 284.053 360.733 284.053 360.612C283.931 360.491 283.931 360.248 283.81 360.127C283.689 360.006 283.689 359.885 283.568 359.764L283.447 359.642C283.204 359.4 282.962 359.037 282.598 358.794L282.477 358.673C282.356 358.552 282.235 358.552 282.114 358.431C281.992 358.309 281.75 358.188 281.508 358.188C281.386 358.188 281.387 358.188 281.265 358.067C280.902 357.946 280.538 357.825 280.054 357.825C279.932 357.825 279.932 357.825 279.811 357.825C279.569 357.825 279.326 357.825 279.084 357.825C278.842 357.825 278.599 357.825 278.357 357.825C278.236 357.825 277.63 357.946 277.872 357.825C277.024 357.946 276.176 357.582 275.812 356.855C275.57 356.976 275.449 357.098 275.206 357.219C275.206 357.219 275.206 357.219 275.085 357.219L274.964 357.34C274.6 357.582 274.358 357.946 273.994 358.309C273.994 358.431 273.873 358.431 273.873 358.552C273.752 358.794 273.631 358.915 273.51 359.158C273.389 359.279 273.267 359.521 273.267 359.642L273.146 359.885V360.006C273.025 360.37 272.904 360.854 272.783 361.218C272.783 361.46 272.661 361.581 272.661 361.824C272.661 361.945 272.661 361.945 272.661 362.066C272.661 362.43 272.661 362.793 272.661 363.278C272.661 363.52 272.661 363.763 272.661 363.884V364.005C272.661 364.005 272.661 364.005 272.661 364.126C272.782 364.49 272.783 364.853 272.904 365.217C273.025 365.459 273.025 365.58 273.146 365.823C273.146 365.944 273.267 365.944 273.267 366.065C273.388 366.429 273.631 366.671 273.873 367.035L273.994 367.277C274.116 367.398 274.237 367.519 274.358 367.762C274.479 367.883 274.6 368.004 274.843 368.125L274.964 368.246C274.964 368.246 274.964 368.246 275.085 368.246C275.448 368.489 275.812 368.731 276.176 368.852C276.297 368.852 276.418 368.974 276.418 368.974C276.66 369.095 276.903 369.095 277.024 369.216C277.266 369.337 277.509 369.337 277.751 369.337H277.872C277.993 369.337 278.114 369.337 278.114 369.337C278.599 369.337 278.963 369.337 279.448 369.337C279.448 369.337 279.448 369.337 279.569 369.337C279.69 369.337 279.811 369.337 279.932 369.216C280.175 369.216 280.296 369.095 280.538 369.095C280.781 369.095 280.902 368.974 281.144 368.852C281.265 368.852 281.265 368.731 281.387 368.731C281.75 368.61 281.993 368.368 282.235 368.246C282.356 368.246 282.477 368.125 282.477 368.004C282.598 367.883 282.72 367.762 282.841 367.641C282.962 367.519 283.083 367.398 283.204 367.277L283.325 367.156C283.568 366.792 283.689 366.55 283.81 366.186C283.81 366.186 283.81 366.065 283.931 366.065C283.931 366.065 283.931 366.065 283.931 365.944C283.931 365.823 284.053 365.58 284.053 365.459C284.174 365.096 284.174 364.853 284.295 364.49C284.295 364.369 284.295 364.369 284.295 364.369C284.295 364.369 284.295 364.369 284.295 364.247C284.658 363.884 284.659 363.641 284.659 363.52ZM354.581 395.392C355.429 399.996 351.673 403.147 347.795 404.844C349.491 407.389 350.703 410.176 350.824 413.205C350.946 415.266 350.219 417.568 348.522 418.901C346.947 420.234 344.765 420.598 342.826 419.992C338.464 418.659 336.767 414.054 336.525 409.691C335.313 410.297 333.859 410.539 332.405 410.418C327.921 410.176 323.437 406.54 323.922 401.693C324.285 398.785 325.982 396.361 328.89 395.513C330.708 395.028 332.526 395.149 334.101 395.997C333.374 393.331 333.132 390.544 334.222 387.999C335.919 384.121 340.888 383.273 344.038 386.06C345.492 387.393 346.098 388.969 346.098 390.544C349.855 389.575 353.854 391.392 354.581 395.392ZM349.492 394.058C349.37 394.058 349.492 394.058 349.492 394.058V394.058ZM337.616 389.696C337.737 389.575 337.737 389.575 337.616 389.696V389.696ZM345.008 416.72C345.25 416.72 345.25 416.72 345.008 416.72V416.72ZM346.583 415.871C346.462 415.993 346.462 415.993 346.583 415.871V415.871ZM351.067 396.846C351.067 396.724 351.067 396.482 351.067 396.361C351.067 396.361 351.067 396.361 351.067 396.24C351.067 396.119 350.946 395.997 350.946 395.755L350.824 395.513C350.824 395.392 350.703 395.27 350.703 395.27C350.582 395.149 350.582 395.028 350.461 394.907C350.582 395.028 350.582 395.028 350.34 394.786C350.219 394.664 350.097 394.543 349.976 394.422C349.855 394.301 349.734 394.301 349.613 394.18C349.613 394.18 349.613 394.18 349.492 394.18C349.37 394.18 349.128 394.058 349.007 394.058C348.885 394.058 348.764 394.058 348.764 394.058C348.643 394.058 348.522 394.058 348.401 394.058C348.401 394.058 348.159 394.058 348.037 394.058C347.916 394.058 347.674 394.058 347.674 394.18C347.553 394.18 347.31 394.301 347.189 394.301C347.189 394.301 347.068 394.301 347.068 394.422C346.947 394.543 346.704 394.664 346.583 394.664C346.462 394.664 346.098 395.028 346.098 395.028C345.977 395.149 345.735 395.27 345.614 395.392C345.371 395.513 345.25 395.755 345.129 395.997C344.402 397.573 343.311 399.027 342.342 400.239C341.736 400.966 340.645 400.845 339.918 400.36C339.191 399.754 339.07 398.785 339.433 398.057C340.16 396.603 341.009 395.028 342.221 393.695C342.342 393.574 342.342 393.331 342.342 393.331C342.463 393.089 342.463 392.725 342.584 392.483C342.584 392.362 342.584 392.241 342.705 392.12C342.705 391.877 342.705 391.635 342.705 391.392C342.705 391.15 342.584 390.544 342.705 391.029C342.705 390.908 342.584 390.665 342.584 390.544C342.584 390.423 342.463 390.302 342.463 390.059C342.463 390.059 342.463 389.938 342.342 389.938C342.22 389.817 342.099 389.575 342.099 389.454L341.978 389.332C341.857 389.211 341.736 389.09 341.615 388.969C341.493 388.848 341.251 388.726 341.13 388.726H341.009C340.766 388.726 340.524 388.605 340.281 388.484H340.16C340.039 388.484 339.918 388.484 339.676 388.484C339.554 388.484 339.433 388.605 339.191 388.605H339.07C338.948 388.726 338.827 388.726 338.706 388.848C338.706 388.848 338.706 388.848 338.585 388.969C338.464 389.09 338.343 389.211 338.221 389.332L338.1 389.454C338.1 389.454 338.1 389.332 338.221 389.332L338.1 389.454C338.1 389.454 338.1 389.454 338.1 389.332V389.454C337.979 389.575 337.979 389.696 337.858 389.817C337.858 389.817 337.737 389.938 337.737 390.059C337.616 390.302 337.615 390.423 337.494 390.665C337.494 390.787 337.373 391.029 337.373 391.15C337.373 391.271 337.373 391.514 337.373 391.635C337.373 392.241 337.373 392.725 337.373 393.331C337.373 393.453 337.373 393.453 337.373 393.453C337.373 393.453 337.373 393.453 337.373 393.574C337.373 393.695 337.373 393.937 337.494 394.058C337.615 394.422 337.616 394.664 337.737 395.028C337.979 395.755 338.221 396.482 338.464 397.209C338.827 398.179 338.1 399.148 337.252 399.391C337.131 399.391 337.009 399.391 336.888 399.391C336.767 399.875 336.404 400.239 336.04 400.481C335.071 400.966 334.101 400.602 333.495 399.875C332.647 398.663 330.466 398.785 329.133 399.633C328.527 399.996 328.163 400.481 327.921 401.208C327.8 401.451 327.8 401.693 327.8 401.935C327.678 402.299 327.8 401.935 327.8 402.178C327.8 402.42 327.8 402.541 327.8 402.784C327.8 402.905 327.8 403.026 327.8 403.026C327.8 403.268 327.921 403.39 327.921 403.632L328.042 403.874C328.163 404.238 328.406 404.48 328.527 404.844C328.527 404.965 328.648 404.965 328.648 405.086C328.769 405.207 328.89 405.329 329.011 405.45C329.254 405.692 329.254 405.692 329.617 405.934C330.829 406.783 332.041 407.025 333.616 406.904C333.859 406.904 333.616 406.904 333.98 406.904C334.222 406.904 334.465 406.783 334.586 406.783C335.071 406.662 335.071 406.662 335.434 406.419C336.161 406.056 336.646 405.692 337.252 404.965C338.221 403.753 340.524 404.723 340.403 406.298C340.282 407.873 340.16 409.933 340.403 411.145C340.524 411.872 340.645 412.478 340.887 413.205C340.887 413.327 341.009 413.569 341.13 413.69C341.251 413.933 341.372 414.175 341.493 414.417C341.615 414.66 341.736 414.902 341.978 415.144C341.978 415.266 342.099 415.266 342.099 415.266C342.099 415.266 342.099 415.266 342.221 415.387C342.463 415.629 342.705 415.871 342.947 416.114C343.069 416.235 343.19 416.356 343.311 416.356C343.432 416.477 343.675 416.477 343.796 416.599H343.917C344.038 416.599 344.281 416.72 344.402 416.72H344.523C344.523 416.72 344.523 416.72 344.644 416.72C344.765 416.72 345.008 416.72 345.129 416.72H345.25C345.371 416.72 345.614 416.599 345.735 416.599H345.856C345.977 416.477 346.098 416.477 346.341 416.356C346.341 416.356 346.462 416.356 346.462 416.235C346.583 416.114 346.704 415.993 346.826 415.871L346.947 415.75C346.947 415.75 346.947 415.75 346.947 415.629C347.068 415.508 347.068 415.387 347.189 415.144C347.189 415.144 347.189 415.144 347.189 415.023C347.189 415.023 347.189 415.023 347.189 414.902C347.189 414.781 347.31 414.538 347.31 414.417C347.31 414.296 347.431 413.811 347.431 413.933C347.431 413.811 347.431 413.569 347.431 413.448C347.431 413.205 347.431 412.963 347.431 412.721C347.431 412.599 347.431 412.478 347.431 412.357C346.947 409.449 345.492 407.025 343.675 404.601C342.948 403.632 343.796 402.178 344.765 401.935C346.219 401.572 347.431 401.087 348.643 400.239C349.249 399.875 349.249 399.754 349.734 399.391C349.855 399.269 350.097 399.027 350.218 398.906L350.34 398.785L350.461 398.663C350.582 398.421 350.703 398.3 350.824 398.057L350.946 397.815C351.067 397.573 351.067 397.209 351.188 396.967C351.067 396.967 351.067 396.846 351.067 396.846ZM347.189 412.599C347.189 412.721 347.189 412.842 347.189 412.599V412.599ZM512.362 518.392C511.634 528.329 509.09 538.63 502.788 546.628C500.365 549.658 497.214 552.566 493.578 554.141C490.427 555.596 486.913 556.202 483.52 556.807C471.644 558.989 459.526 560.201 447.408 561.291C434.683 562.382 421.959 563.351 409.114 563.715C395.905 564.078 382.696 562.867 369.729 560.564C355.793 558.141 341.978 554.505 328.527 549.9C323.316 548.082 318.105 546.022 313.137 543.599C310.107 542.144 307.077 540.569 304.411 538.388C303.321 551.354 292.778 562.018 279.205 562.018H279.084H77.5563C66.2863 562.018 56.7129 554.626 53.441 544.326H48.1091C42.4134 544.326 37.3237 539.963 35.6271 533.54L2.66537 414.296C-0.121844 404.238 6.17944 393.937 15.147 393.937H154.993C160.325 384.849 166.505 376.245 173.17 368.125C183.471 355.643 195.346 344.495 208.434 335.042C214.372 330.68 220.674 326.681 227.097 323.166C227.218 318.683 227.46 314.078 227.581 309.594C228.187 295.537 228.793 281.479 229.52 267.422C229.884 260.393 230.126 253.486 230.49 246.457C227.097 245.124 223.703 243.791 220.31 242.458C209.161 238.217 198.134 233.854 186.985 229.492C185.409 228.886 185.288 227.189 186.5 226.22C187.591 225.371 188.681 224.523 189.772 223.554C201.648 213.374 211.706 201.135 222.128 189.622C231.217 179.685 240.548 169.627 251.091 161.023C253.272 145.391 280.296 124.062 297.625 136.665C344.159 118.973 380.514 177.746 363.306 216.283C360.761 222.705 357.611 228.886 353.975 234.824C356.278 241.61 355.672 249.487 349.976 256.516C359.186 269.846 378.818 274.693 392.996 265.725C394.935 264.514 397.844 263.423 399.055 265.241C393.239 285.963 368.76 300.384 348.158 304.625C349.128 307.413 350.098 310.2 351.067 312.987C351.673 313.229 352.158 313.35 352.763 313.593C369.729 320.5 385.119 330.316 399.419 341.707C413.476 352.977 426.564 365.338 439.046 378.305C451.043 390.787 462.434 403.996 472.856 417.932C477.946 423.87 482.793 430.171 487.155 436.715C495.881 449.924 502.788 464.466 507.272 479.614C511.15 492.096 513.331 505.305 512.362 518.392ZM260.058 153.995C263.815 151.329 267.693 148.905 271.934 146.966C267.572 148.541 263.451 150.965 260.058 153.995ZM232.913 243.185C233.64 243.428 234.246 244.034 234.246 244.882C234.125 247.548 234.004 250.214 233.883 252.88C233.277 265.604 232.671 278.207 232.186 290.932C231.701 303.05 231.096 315.168 230.732 327.287C238.609 330.074 246.728 332.255 254.969 333.709C287.082 339.405 320.892 334.558 350.097 320.016C348.401 315.289 346.704 310.563 345.129 305.837C340.403 292.265 336.04 278.571 331.799 264.877H331.678C326.709 264.877 321.862 263.423 317.863 260.515C317.014 259.909 316.893 258.818 317.499 257.97C318.105 257.121 319.196 257 320.044 257.606C327.678 263.302 339.797 262.211 346.462 255.304C354.581 246.7 352.764 235.914 347.431 229.128C341.978 222.342 331.92 218.1 321.74 224.038C320.892 224.523 319.801 224.281 319.317 223.433C318.832 222.584 319.074 221.494 319.923 220.888C320.892 220.282 321.862 219.797 322.831 219.433C321.741 213.374 320.771 207.315 319.802 201.256C284.295 201.983 265.875 179.928 280.781 147.208C271.571 150.238 263.209 155.934 255.817 161.75C242.487 172.536 230.974 185.26 219.583 197.984C210.616 207.921 201.769 218.464 191.348 226.947C191.59 227.068 191.953 227.189 192.196 227.31C205.647 232.642 219.341 237.975 232.913 243.185ZM214.13 540.569C216.796 540.569 219.22 539.236 221.037 536.812C223.461 533.54 224.309 528.935 223.219 524.694L190.257 405.45C188.924 400.602 185.288 397.33 181.289 397.33H15.2683C12.6023 397.33 10.1787 398.663 8.36092 401.087C5.93726 404.359 5.08891 408.964 6.17956 413.205L39.1413 532.45C40.4743 537.297 44.11 540.569 48.1091 540.569H214.13ZM211.949 453.923C211.343 453.923 210.737 454.044 210.131 453.923C208.434 453.681 207.344 452.953 206.616 451.984L217.765 492.459C219.583 491.974 221.28 491.49 223.097 491.005C222.613 490.157 222.37 489.066 222.37 487.975C222.128 482.401 228.066 479.371 232.913 479.008C236.307 478.766 239.821 479.493 243.214 478.281C244.668 477.796 245.88 476.827 246.122 475.251C246.365 474.161 246.365 473.07 246.122 471.979C245.274 468.101 240.305 467.253 236.791 466.89C231.944 466.405 226.854 466.768 222.007 465.799C216.554 464.708 211.464 459.619 211.949 453.923ZM218.856 495.852L226.612 523.846C226.975 525.3 227.218 526.754 227.218 528.087C253.878 528.087 276.539 528.087 288.9 528.087C283.689 525.179 278.963 521.18 275.57 516.211C270.965 509.667 268.299 501.184 260.543 497.67C252.908 494.277 244.183 496.458 236.185 496.337C233.035 496.337 229.035 495.731 226.127 493.792C223.703 494.519 221.28 495.125 218.856 495.852ZM300.776 534.146V534.025V533.904C300.776 533.298 300.534 532.813 300.17 532.45C299.322 532.207 298.473 532.086 297.625 531.844C291.929 531.844 262.967 531.844 226.975 531.844C225.763 538.751 220.674 544.326 214.009 544.326H57.1978C60.3486 552.566 68.2254 558.383 77.4353 558.383H278.963H279.084C285.143 558.383 290.718 555.959 294.838 551.475C299.2 546.749 301.261 540.448 300.776 534.146ZM306.593 526.269C308.895 523.24 310.834 519.968 312.531 516.696C315.924 510.031 318.347 502.639 319.074 495.246C319.317 491.974 319.438 488.703 318.711 485.431C318.468 484.34 318.226 483.249 317.863 482.037C314.712 477.554 311.44 473.312 307.926 469.313C299.928 459.982 291.081 451.136 281.265 443.744C272.298 436.957 262.24 430.898 251.333 428.232C241.76 425.93 231.823 427.02 223.703 432.716C222.855 433.322 221.886 434.049 221.037 434.776C233.64 431.141 247.213 432.11 259.21 437.684C261.391 438.654 259.452 441.805 257.392 440.835C244.668 434.897 229.278 434.655 216.432 440.35C215.948 440.593 215.584 440.593 215.221 440.472C214.857 440.593 214.494 440.835 214.13 440.956C213.039 441.684 211.949 442.532 211.221 443.622C210.131 445.198 209.04 447.5 209.646 449.318C209.767 449.803 210.131 450.287 210.616 450.409C211.706 450.772 212.797 450.409 213.887 450.045C214.009 450.045 214.009 450.045 214.13 450.045C224.794 437.079 243.214 444.107 254.605 451.984C256.544 453.317 254.726 456.468 252.787 455.135C242.729 448.227 226.127 440.956 216.675 452.59C216.553 452.832 216.311 452.953 216.19 452.953C216.19 452.953 216.19 452.954 216.19 453.075C214.615 456.71 218.129 460.588 221.28 461.921C223.34 462.769 225.764 462.769 228.066 462.891C233.277 463.133 238.972 462.891 243.941 464.708C248.425 466.405 250.848 470.04 250.364 474.888C250.121 476.584 249.879 478.038 248.546 479.371C247.455 480.583 246.122 481.31 244.668 481.795C241.396 482.886 237.882 482.765 234.489 482.643C232.065 482.643 229.399 483.128 227.702 484.946C226.612 486.158 226.127 487.733 226.733 489.066C227.702 491.369 230.611 492.338 232.913 492.58C236.791 493.186 240.911 492.702 244.789 492.459C252.787 491.974 261.028 492.338 267.451 497.791C273.389 502.881 275.691 510.758 280.659 516.575C285.264 522.149 291.566 526.027 298.473 528.087C298.837 528.087 298.958 528.087 298.958 528.087C300.049 528.087 301.14 528.451 301.988 528.935C302.715 529.057 303.442 529.178 304.169 529.299C304.896 528.451 305.744 527.36 306.593 526.269ZM508.12 499.851C506.302 486.036 502.061 472.464 496.123 459.861C489.216 444.955 480.127 431.262 469.221 418.901C468.736 418.295 468.615 417.689 468.857 417.083L467.645 416.72C464.858 412.963 461.95 409.328 458.92 405.813C446.559 390.787 432.987 376.487 418.808 363.157C407.053 352.25 394.814 341.707 381.484 332.74C372.395 326.681 362.822 321.47 352.763 317.35C353.127 318.44 353.49 319.531 353.854 320.621C354.096 321.349 353.854 321.954 353.491 322.318C353.612 322.682 353.733 323.045 353.612 323.409C352.279 329.953 349.249 335.891 345.008 340.98C337.616 349.584 326.83 354.916 315.681 356.128C304.169 357.34 292.535 353.826 283.931 346.07C282.235 344.495 284.78 341.95 286.476 343.525C290.96 347.524 296.292 350.311 302.109 351.766C322.225 356.613 344.523 344.373 349.734 324.257C342.342 327.892 334.586 330.801 326.588 333.225C294.232 342.798 258.725 341.829 226.975 330.074C226.006 329.71 225.642 328.862 225.763 328.014C214.372 334.679 203.708 342.556 194.013 351.402C182.501 361.945 172.322 373.821 163.596 386.666C162.021 389.09 160.446 391.514 158.992 393.937H180.805C186.5 393.937 191.59 398.3 193.286 404.723L205.284 448.349C205.284 446.167 206.132 443.744 207.222 442.047C208.192 440.714 209.283 439.623 210.495 438.654C211.1 438.169 211.827 437.806 212.555 437.442C212.676 437.321 212.918 437.321 213.039 437.2C213.16 437.2 213.403 436.957 213.524 436.957C213.645 436.836 213.888 436.473 214.009 436.351C215.948 434.049 218.25 431.989 220.674 430.171C229.52 423.627 240.669 422.294 251.212 424.718C263.088 427.384 273.994 434.049 283.568 441.32C293.989 449.318 303.442 458.649 311.803 468.828C313.742 471.131 315.681 473.555 317.499 476.099C318.468 473.191 321.013 471.131 323.558 469.434C327.194 467.132 330.829 465.072 335.192 464.224C343.675 462.648 352.157 465.072 360.519 466.647C361.125 466.768 361.61 466.89 362.216 467.011C362.458 467.011 362.7 467.132 362.943 467.132C363.185 467.132 363.549 467.011 363.791 467.011C364.639 466.768 365.366 466.647 366.094 466.405C367.911 465.799 369.85 465.193 371.668 464.466C376.273 462.769 380.878 460.83 385.362 458.891C395.662 454.65 406.084 450.287 416.991 447.5C420.505 446.652 424.383 445.804 428.261 445.44C427.897 444.713 427.412 444.107 427.049 443.501C426.685 443.016 426.322 442.532 425.716 442.047C425.594 441.926 425.594 441.926 425.716 442.047C425.594 441.926 425.473 441.805 425.231 441.683C424.989 441.441 424.746 441.078 424.504 440.714C424.14 440.229 423.777 439.745 423.413 439.381C420.263 435.745 416.384 433.079 412.022 431.019C405.114 427.869 396.632 426.899 390.936 421.567C382.817 414.054 386.21 400.36 388.634 391.271C389.24 388.969 392.754 389.938 392.148 392.241C390.573 398.058 389.118 404.359 389.724 410.418C390.088 414.054 391.3 417.083 393.844 419.386C396.147 421.446 399.54 422.658 402.57 423.748C410.931 426.657 419.172 429.444 425.352 436.23C425.837 436.715 426.2 437.2 426.685 437.806C427.049 438.29 427.776 438.896 427.897 439.502C428.018 439.502 428.018 439.623 428.139 439.623C428.26 439.745 428.382 439.866 428.503 439.866C428.745 440.108 428.988 440.35 429.23 440.593C430.442 442.047 431.411 443.744 432.381 445.44V445.561C436.259 445.682 440.137 446.531 443.409 448.47C447.044 450.651 449.468 454.286 450.679 458.286C451.043 459.376 451.285 460.588 451.406 461.8C451.528 462.769 451.649 463.375 451.164 464.224C450.922 464.708 450.558 465.314 450.195 465.799C448.983 467.374 447.529 468.828 445.469 469.071C441.47 469.556 438.682 465.435 436.864 462.527C434.198 458.286 432.26 453.681 430.078 449.197C429.351 449.197 428.624 449.197 428.018 449.318C417.839 450.166 407.781 453.802 398.328 457.558C389.118 461.194 380.151 465.314 370.82 468.707C369.123 469.313 367.548 469.919 365.73 470.283C365.003 470.525 364.276 470.646 363.67 470.767C361.973 471.131 359.913 470.404 358.338 470.04C350.34 468.465 341.857 466.041 333.738 468.344C330.102 469.434 326.467 471.495 323.558 473.918C321.498 475.615 320.408 477.554 320.771 480.22C321.014 481.795 321.619 483.37 321.862 484.825C322.225 486.4 322.346 487.975 322.468 489.551C322.589 492.944 322.346 496.458 321.74 499.851C320.407 507.001 317.863 514.03 314.348 520.453C312.652 523.603 310.713 526.512 308.532 529.299C307.441 530.632 306.35 531.965 305.138 533.056C304.532 533.54 305.138 533.056 304.775 533.419C304.775 533.419 304.775 533.419 304.654 533.419V533.54C304.775 533.661 304.775 533.783 304.896 534.025C304.896 534.146 305.017 534.146 305.017 534.267C305.017 534.267 305.017 534.267 305.138 534.389C305.26 534.631 305.502 534.752 305.744 534.995C305.987 535.237 306.229 535.479 306.472 535.6C306.714 535.843 306.956 535.964 307.077 536.085C310.228 538.388 313.863 540.205 317.499 541.781C328.648 546.749 340.645 550.264 352.521 553.172C366.215 556.565 380.151 559.11 394.208 559.958C405.478 560.564 416.991 559.837 428.261 559.11C441.106 558.262 453.951 557.171 466.797 555.596C471.887 554.99 477.097 554.263 482.187 553.293C484.126 552.93 486.065 552.566 488.004 552.081C488.731 551.839 489.458 551.718 490.185 551.475C490.549 551.354 490.791 551.233 491.155 551.112C491.276 551.112 491.639 550.87 491.76 550.87C499.031 547.598 503.636 539.842 505.939 532.571C509.453 522.149 509.453 510.758 508.12 499.851ZM363.064 467.011H363.185C362.943 467.011 362.822 467.011 363.064 467.011ZM448.256 462.285C448.256 462.163 448.256 462.163 448.256 462.042C448.135 461.557 448.013 460.952 447.892 460.346C447.65 459.376 447.407 458.286 446.923 457.316C444.62 451.863 439.894 449.682 434.562 449.076C436.016 452.105 437.47 455.135 439.046 458.043C440.015 459.861 440.985 461.557 442.318 463.133C442.802 463.739 443.408 464.345 443.893 464.587C444.014 464.708 444.257 464.829 444.378 464.829C444.62 464.951 444.499 464.829 444.499 464.951C444.62 464.951 444.742 465.072 444.984 465.072C444.984 465.072 444.984 465.072 445.105 465.072C445.226 465.072 445.347 465.072 445.347 465.072C445.468 465.072 445.59 465.072 445.711 464.951C445.711 464.951 445.953 464.829 446.317 464.587C446.68 464.345 447.407 463.375 447.892 462.769C448.013 462.769 448.135 462.527 448.256 462.285ZM448.256 462.285C448.256 462.527 448.377 462.527 448.256 462.285V462.285ZM123 459.74C126.03 464.708 126.636 471.616 123.606 476.827C120.576 482.28 113.548 484.946 107.852 482.037C102.884 479.493 100.46 473.433 100.46 468.101C100.46 463.86 101.914 459.861 104.823 457.195C104.944 456.71 105.186 456.347 105.671 455.983C108.701 453.923 112.457 452.832 115.972 453.802C118.88 454.771 121.425 457.074 123 459.74ZM119.122 460.467C117.789 458.77 116.214 457.68 114.154 457.195C113.427 457.074 112.094 457.074 111.124 457.316C111.003 457.316 111.003 457.316 110.882 457.437C110.639 457.68 110.397 457.801 110.155 457.922C105.307 459.74 103.49 465.072 104.096 469.919C104.338 471.858 105.065 474.039 106.277 475.857C107.246 477.432 108.822 478.766 110.518 479.25C112.457 479.856 114.76 479.614 116.82 478.644C118.88 477.554 120.455 475.494 121.182 473.433C122.758 469.192 121.909 463.981 119.122 460.467ZM276.903 344.495C277.872 342.434 274.722 340.496 273.752 342.677C269.995 350.554 262.482 355.522 253.999 356.855C246.486 358.067 238.003 356.007 233.034 349.948C229.884 346.191 228.793 341.344 228.914 336.496C228.914 334.194 225.279 334.194 225.279 336.496C225.158 341.465 226.248 346.555 229.157 350.796C231.701 354.553 235.337 357.219 239.578 358.915C248.061 362.308 258.119 360.975 265.875 356.37C270.722 353.583 274.6 349.463 276.903 344.495ZM267.208 271.785V271.906V271.785ZM242.123 218.464C243.214 218.706 243.941 218.1 244.304 217.252C245.759 213.617 247.334 209.86 248.788 206.225C249.152 205.376 248.425 204.164 247.576 204.043C246.486 203.801 245.759 204.407 245.395 205.255C243.941 208.891 242.365 212.647 240.911 216.283C240.548 217.131 241.275 218.222 242.123 218.464ZM264.178 274.208C262.482 271.421 264.542 267.786 267.208 266.453C268.056 265.968 269.026 265.725 269.995 265.604C270.238 262.09 274.116 259.666 277.388 259.424C279.326 259.303 281.386 260.03 282.719 261.363C283.325 261.969 283.81 262.817 284.174 263.665C286.476 260.878 288.294 257.606 289.385 254.092C290.112 251.911 293.626 252.88 292.899 255.061C291.687 258.939 289.627 262.575 287.203 265.725C287.567 265.968 287.809 266.331 287.93 266.695C288.9 269.603 289.142 272.754 288.658 275.784C287.931 279.783 285.264 284.024 280.902 284.751C275.933 285.6 272.177 281.843 269.753 277.965C265.875 279.177 261.755 279.783 257.513 279.54C255.211 279.419 255.211 275.784 257.513 275.905C260.179 276.026 262.724 275.784 265.269 275.299C264.785 275.057 264.421 274.693 264.178 274.208ZM267.208 272.391C267.329 272.512 267.45 272.633 267.208 272.391V272.391ZM282.598 270.573C279.811 273.118 276.539 275.178 273.025 276.632C273.51 277.359 273.994 277.965 274.479 278.571C274.964 279.056 275.327 279.419 275.812 279.904C275.812 279.904 275.812 279.904 275.933 280.025C276.055 280.146 276.176 280.146 276.176 280.267C276.418 280.389 276.66 280.631 276.903 280.752C277.024 280.873 277.145 280.873 277.266 280.995C277.266 280.995 277.388 280.995 277.388 281.116C277.509 281.116 277.751 281.237 277.872 281.237C278.115 281.237 278.236 281.358 278.478 281.358C278.478 281.358 278.842 281.358 278.842 281.479C278.963 281.479 279.205 281.479 279.326 281.479C279.447 281.479 279.69 281.479 279.811 281.479H279.932C280.053 281.479 280.296 281.358 280.417 281.358C280.538 281.358 280.902 281.237 280.902 281.237C281.023 281.237 281.144 281.116 281.265 281.116C281.387 280.995 281.629 280.995 281.75 280.873C281.75 280.873 281.993 280.752 281.993 280.631L282.114 280.51C282.235 280.389 282.235 280.389 282.356 280.267C282.477 280.146 282.598 280.025 282.719 279.904C282.841 279.783 282.962 279.662 282.962 279.54C282.962 279.54 283.204 279.298 283.204 279.177C283.447 278.813 283.689 278.329 283.931 277.965C283.931 277.844 284.052 277.601 284.174 277.601C284.295 277.48 284.295 277.238 284.416 277.117C284.537 276.632 284.658 276.147 284.78 275.662C284.901 275.178 284.901 274.814 285.022 274.572C285.143 272.875 285.022 271.421 284.78 269.967C284.537 270.573 283.81 271.058 283.083 271.058C282.962 270.694 282.841 270.694 282.598 270.573ZM273.51 266.089C273.51 266.21 273.51 266.331 273.51 266.453C275.085 267.301 276.418 268.634 277.388 270.088C278.721 269.119 280.054 268.028 281.265 266.937C281.144 266.453 281.023 265.847 280.902 265.362V265.241C280.902 265.12 280.781 265.12 280.781 264.998C280.66 264.756 280.538 264.635 280.417 264.392C280.296 264.271 280.296 264.271 280.296 264.271L280.175 264.15C280.054 264.029 279.932 263.908 279.69 263.787C279.569 263.787 279.569 263.665 279.448 263.665C279.326 263.544 279.205 263.544 278.963 263.423H278.842C278.721 263.423 278.478 263.302 278.357 263.302H278.236C278.115 263.302 277.872 263.302 277.751 263.302C277.63 263.302 277.387 263.302 277.266 263.302H277.145C276.782 263.423 276.418 263.423 276.176 263.544C276.055 263.544 276.055 263.544 275.933 263.665C275.812 263.787 275.691 263.787 275.57 263.908C275.327 264.029 274.964 264.271 274.722 264.392L274.6 264.514C274.479 264.635 274.358 264.756 274.237 264.877C274.237 264.877 274.116 264.998 273.994 265.12C273.994 265.241 273.873 265.241 273.873 265.362C273.752 265.483 273.752 265.604 273.631 265.725V265.847C273.631 265.725 273.51 265.847 273.51 266.089ZM269.995 269.361C270.116 269.361 270.117 269.361 270.117 269.361H269.995ZM267.087 271.906V272.027V272.148C266.966 272.027 267.087 272.027 267.087 272.148V272.269C267.087 272.269 267.087 272.269 267.087 272.148C267.208 272.269 267.208 272.269 267.329 272.391C267.45 272.512 267.572 272.512 267.693 272.633C268.056 272.754 268.299 272.754 268.662 272.875C268.784 272.875 268.905 272.875 269.026 272.875C269.268 272.875 269.389 272.875 269.632 272.875C270.116 272.875 270.601 273.118 270.843 273.36C271.934 272.875 272.904 272.391 273.994 271.906C272.783 271.179 271.571 270.33 270.843 269.119C270.843 269.119 270.844 269.119 270.722 269.119C270.601 269.119 270.48 269.119 270.359 269.119C270.238 269.119 270.116 269.119 269.995 269.119H269.874C269.753 269.119 269.147 269.24 269.026 269.361C269.026 269.361 269.389 269.119 269.147 269.24C269.147 269.24 269.026 269.24 269.026 269.361C268.905 269.361 268.784 269.482 268.662 269.603C268.541 269.725 268.42 269.725 268.299 269.846C268.056 269.967 267.935 270.209 267.814 270.33C267.814 270.33 267.814 270.33 267.693 270.452C267.693 270.573 267.572 270.573 267.572 270.694C267.45 270.815 267.451 270.936 267.451 271.058C267.451 271.179 267.329 271.3 267.329 271.421C267.208 271.663 267.087 271.663 267.087 271.906ZM252.181 220.161C253.272 220.403 253.999 219.797 254.363 218.949C255.696 215.556 256.908 212.162 258.241 208.891C258.604 208.042 257.877 206.83 257.029 206.709C255.938 206.467 255.211 207.073 254.847 207.921C253.514 211.314 252.303 214.707 250.97 217.979C250.606 218.706 251.333 219.918 252.181 220.161ZM254.847 178.958C255.817 178.958 256.665 178.958 257.635 178.958C258.119 178.958 258.604 178.716 258.968 178.474C259.331 178.11 259.574 177.625 259.452 177.141C259.452 176.656 259.331 176.171 258.968 175.808C258.604 175.444 258.119 175.323 257.635 175.323C256.665 175.323 255.817 175.323 254.847 175.323C254.363 175.323 253.878 175.565 253.515 175.808C253.151 176.171 252.908 176.656 253.03 177.141C253.03 177.625 253.151 178.11 253.515 178.474C253.878 178.837 254.363 178.958 254.847 178.958Z" fill="#DCDCDC"/>
<path d="M101.569 145.117C99.5233 143.617 101.569 140.071 103.615 141.571C118.072 152.346 132.53 163.257 147.123 174.031C149.169 175.532 147.123 179.078 145.077 177.578C130.62 166.667 116.026 155.892 101.569 145.117ZM146.168 146.617C153.943 153.846 161.717 161.075 169.627 168.303C171.537 170.076 174.401 167.212 172.491 165.439C164.717 158.21 156.943 150.982 149.032 143.753C147.123 141.98 144.259 144.844 146.168 146.617ZM453.725 199.263C466.818 189.58 480.048 179.896 493.141 170.213C495.187 168.712 493.141 165.166 491.095 166.667C478.002 176.35 464.772 186.034 451.679 195.717C449.497 197.354 451.543 200.9 453.725 199.263ZM467.773 213.448C474.047 210.584 480.32 207.856 486.594 204.992C487.549 204.583 487.822 203.082 487.276 202.128C486.731 201.036 485.503 200.9 484.412 201.446C478.138 204.31 471.865 207.038 465.591 209.902C464.636 210.311 464.363 211.811 464.909 212.766C465.591 213.721 466.818 213.857 467.773 213.448ZM117.663 188.079C120.8 189.58 123.937 191.216 127.074 192.717C128.029 193.262 129.392 192.99 129.938 192.035C130.484 191.08 130.211 189.716 129.256 189.171C126.119 187.67 122.982 186.034 119.845 184.533C118.891 183.988 117.527 184.261 116.981 185.215C116.436 186.17 116.572 187.534 117.663 188.079Z" fill="#DCDCDC"/>
</svg>
